<svg width="24" height="20" viewBox="0 0 24 20" fill="none" xmlns="http://www.w3.org/2000/svg">
<path d="M19.34 12.075L18.34 10.6917C18.13 10.3833 17.94 9.8 17.94 9.45833V7.35C17.94 5.39166 16.56 3.7 14.57 2.90833C14.05 2.14166 13.09 1.66666 11.99 1.66666C10.9 1.66666 9.92 2.15833 9.4 2.93333C7.45 3.74166 6.1 5.41666 6.1 7.35V9.45833C6.1 9.8 5.91 10.3833 5.7 10.6833L4.69 12.075C4.29 12.6333 4.2 13.25 4.45 13.8167C4.69 14.375 5.26 14.8083 6 15.0167C7.94 15.5667 9.98 15.8333 12.02 15.8333C14.06 15.8333 16.1 15.5667 18.04 15.025C18.74 14.8333 19.28 14.3917 19.54 13.8167C19.8 13.2417 19.73 12.6083 19.34 12.075Z" fill="#0D101C"/>
<path d="M14.83 16.675C14.41 17.6417 13.3 18.3333 12 18.3333C11.21 18.3333 10.43 18.0667 9.87999 17.5917C9.55999 17.3417 9.31999 17.0083 9.17999 16.6667C9.30999 16.6833 9.43999 16.6917 9.57999 16.7083C9.80999 16.7333 10.05 16.7583 10.29 16.775C10.86 16.8167 11.44 16.8417 12.02 16.8417C12.59 16.8417 13.16 16.8167 13.72 16.775C13.93 16.7583 14.14 16.75 14.34 16.725C14.5 16.7083 14.66 16.6917 14.83 16.675Z" fill="#0D101C"/>
</svg>
