<svg width="19" height="19" viewBox="0 0 19 19" fill="none" xmlns="http://www.w3.org/2000/svg">
<path d="M17.8667 7.75H0.466797C0.300797 7.75 0.166748 7.88405 0.166748 8.05005V16C0.166748 18 1.16675 19 3.16675 19H15.1667C17.1667 19 18.1667 18 18.1667 16V8.05005C18.1667 7.88405 18.0327 7.75 17.8667 7.75ZM5.18677 16C4.63477 16 4.18164 15.552 4.18164 15C4.18164 14.448 4.62476 14 5.17676 14H5.18677C5.73977 14 6.18677 14.448 6.18677 15C6.18677 15.552 5.73877 16 5.18677 16ZM5.18677 12C4.63477 12 4.18164 11.552 4.18164 11C4.18164 10.448 4.62476 10 5.17676 10H5.18677C5.73977 10 6.18677 10.448 6.18677 11C6.18677 11.552 5.73877 12 5.18677 12ZM9.18677 16C8.63477 16 8.18164 15.552 8.18164 15C8.18164 14.448 8.62476 14 9.17676 14H9.18677C9.73977 14 10.1868 14.448 10.1868 15C10.1868 15.552 9.73877 16 9.18677 16ZM9.18677 12C8.63477 12 8.18164 11.552 8.18164 11C8.18164 10.448 8.62476 10 9.17676 10H9.18677C9.73977 10 10.1868 10.448 10.1868 11C10.1868 11.552 9.73877 12 9.18677 12ZM13.1868 16C12.6348 16 12.1816 15.552 12.1816 15C12.1816 14.448 12.6248 14 13.1768 14H13.1868C13.7398 14 14.1868 14.448 14.1868 15C14.1868 15.552 13.7388 16 13.1868 16ZM13.1868 12C12.6348 12 12.1816 11.552 12.1816 11C12.1816 10.448 12.6248 10 13.1768 10H13.1868C13.7398 10 14.1868 10.448 14.1868 11C14.1868 11.552 13.7388 12 13.1868 12ZM18.1667 5.5V5.94995C18.1667 6.11595 18.0327 6.25 17.8667 6.25H0.466797C0.300797 6.25 0.166748 6.11595 0.166748 5.94995V5.5C0.166748 3.5 1.16675 2.5 3.16675 2.5H4.41675V1C4.41675 0.59 4.75675 0.25 5.16675 0.25C5.57675 0.25 5.91675 0.59 5.91675 1V2.5H12.4167V1C12.4167 0.59 12.7567 0.25 13.1667 0.25C13.5767 0.25 13.9167 0.59 13.9167 1V2.5H15.1667C17.1667 2.5 18.1667 3.5 18.1667 5.5Z" fill="#613BE7"/>
</svg>
