<svg width="20" height="20" viewBox="0 0 20 20" fill="none" xmlns="http://www.w3.org/2000/svg">
<path d="M16.1667 1.75H14.9167V1C14.9167 0.586 14.5807 0.25 14.1667 0.25C13.7527 0.25 13.4167 0.586 13.4167 1V1.75H6.91669V1C6.91669 0.586 6.58069 0.25 6.16669 0.25C5.75269 0.25 5.41669 0.586 5.41669 1V1.75H4.16669C1.74869 1.75 0.416687 3.082 0.416687 5.5V16C0.416687 18.418 1.74869 19.75 4.16669 19.75H16.1667C18.5847 19.75 19.9167 18.418 19.9167 16V5.5C19.9167 3.082 18.5847 1.75 16.1667 1.75ZM4.16669 3.25H5.41669V4C5.41669 4.414 5.75269 4.75 6.16669 4.75C6.58069 4.75 6.91669 4.414 6.91669 4V3.25H13.4167V4C13.4167 4.414 13.7527 4.75 14.1667 4.75C14.5807 4.75 14.9167 4.414 14.9167 4V3.25H16.1667C17.7437 3.25 18.4167 3.923 18.4167 5.5V6.25H1.91669V5.5C1.91669 3.923 2.58969 3.25 4.16669 3.25ZM16.1667 18.25H4.16669C2.58969 18.25 1.91669 17.577 1.91669 16V7.75H18.4167V16C18.4167 17.577 17.7437 18.25 16.1667 18.25ZM7.18671 11C7.18671 11.552 6.73971 12 6.18671 12C5.63471 12 5.18158 11.552 5.18158 11C5.18158 10.448 5.6247 10 6.1767 10H6.18671C6.73871 10 7.18671 10.448 7.18671 11ZM11.1867 11C11.1867 11.552 10.7397 12 10.1867 12C9.63471 12 9.18158 11.552 9.18158 11C9.18158 10.448 9.6247 10 10.1767 10H10.1867C10.7387 10 11.1867 10.448 11.1867 11ZM15.1867 11C15.1867 11.552 14.7397 12 14.1867 12C13.6347 12 13.1816 11.552 13.1816 11C13.1816 10.448 13.6247 10 14.1767 10H14.1867C14.7387 10 15.1867 10.448 15.1867 11ZM7.18671 15C7.18671 15.552 6.73971 16 6.18671 16C5.63471 16 5.18158 15.552 5.18158 15C5.18158 14.448 5.6247 14 6.1767 14H6.18671C6.73871 14 7.18671 14.448 7.18671 15ZM11.1867 15C11.1867 15.552 10.7397 16 10.1867 16C9.63471 16 9.18158 15.552 9.18158 15C9.18158 14.448 9.6247 14 10.1767 14H10.1867C10.7387 14 11.1867 14.448 11.1867 15ZM15.1867 15C15.1867 15.552 14.7397 16 14.1867 16C13.6347 16 13.1816 15.552 13.1816 15C13.1816 14.448 13.6247 14 14.1767 14H14.1867C14.7387 14 15.1867 14.448 15.1867 15Z" fill="#93989D"/>
</svg>
