<svg width="19" height="18" viewBox="0 0 19 18" fill="none" xmlns="http://www.w3.org/2000/svg">
<path fill-rule="evenodd" clip-rule="evenodd" d="M15.8333 18H12.6334C12.4674 18 12.3333 17.866 12.3333 17.7V13.5C12.3333 12.119 11.2143 11 9.83333 11C8.45233 11 7.33333 12.119 7.33333 13.5V17.7C7.33333 17.866 7.19928 18 7.03328 18H3.83333C1.83333 18 0.833332 17 0.833332 15V8.65102C0.833332 6.65302 1.35639 6.34608 2.26339 5.58608L8.22738 0.584982C9.15637 -0.194018 10.5114 -0.194018 11.4404 0.584982L17.4044 5.58608C18.3104 6.34608 18.8343 6.65302 18.8343 8.65102V15C18.8333 17 17.8333 18 15.8333 18Z" fill="#613BE7"/>
</svg>
