<svg width="19" height="20" viewBox="0 0 19 20" fill="none" xmlns="http://www.w3.org/2000/svg">
<path d="M14.5 2.25H14.23C14.133 0.996 13.321 0.25 12 0.25H7C5.679 0.25 4.86702 0.996 4.77002 2.25H4.5C2.082 2.25 0.75 3.582 0.75 6V16C0.75 18.418 2.082 19.75 4.5 19.75H14.5C16.918 19.75 18.25 18.418 18.25 16V6C18.25 3.582 16.918 2.25 14.5 2.25ZM6.25 2.5C6.25 1.911 6.411 1.75 7 1.75H12C12.589 1.75 12.75 1.911 12.75 2.5V3.5C12.75 4.089 12.589 4.25 12 4.25H7C6.411 4.25 6.25 4.089 6.25 3.5V2.5ZM16.75 16C16.75 17.577 16.077 18.25 14.5 18.25H4.5C2.923 18.25 2.25 17.577 2.25 16V6C2.25 4.423 2.923 3.75 4.5 3.75H4.77002C4.86702 5.004 5.679 5.75 7 5.75H12C13.321 5.75 14.133 5.004 14.23 3.75H14.5C16.077 3.75 16.75 4.423 16.75 6V16ZM14.75 10C14.75 10.414 14.414 10.75 14 10.75H10C9.586 10.75 9.25 10.414 9.25 10C9.25 9.586 9.586 9.25 10 9.25H14C14.414 9.25 14.75 9.586 14.75 10ZM14.75 14C14.75 14.414 14.414 14.75 14 14.75H10C9.586 14.75 9.25 14.414 9.25 14C9.25 13.586 9.586 13.25 10 13.25H14C14.414 13.25 14.75 13.586 14.75 14ZM7.53003 8.80298C7.82303 9.09598 7.82303 9.57101 7.53003 9.86401L6.19702 11.197C6.05602 11.338 5.86599 11.417 5.66699 11.417C5.46799 11.417 5.27696 11.338 5.13696 11.198L4.46997 10.531C4.17697 10.238 4.17697 9.76297 4.46997 9.46997C4.76297 9.17697 5.23801 9.17697 5.53101 9.46997L5.66797 9.60699L6.47095 8.80402C6.76295 8.51002 7.23703 8.50998 7.53003 8.80298ZM7.53003 12.803C7.82303 13.096 7.82303 13.571 7.53003 13.864L6.19702 15.197C6.05602 15.338 5.86599 15.417 5.66699 15.417C5.46799 15.417 5.27696 15.338 5.13696 15.198L4.46997 14.531C4.17697 14.238 4.17697 13.763 4.46997 13.47C4.76297 13.177 5.23801 13.177 5.53101 13.47L5.66797 13.607L6.47095 12.804C6.76295 12.51 7.23703 12.51 7.53003 12.803Z" fill="#93989D"/>
</svg>
