<svg width="17" height="18" viewBox="0 0 17 18" fill="none" xmlns="http://www.w3.org/2000/svg">
<path d="M14.2351 2.05701C14.1141 2.03901 14 2.13899 14 2.26099V2.49902C14 4.31902 12.82 5.49902 11 5.49902H6C4.18 5.49902 3 4.31902 3 2.49902V2.26099C3 2.13899 2.88489 2.03901 2.76489 2.05701C1.25189 2.27701 0.5 3.258 0.5 5V15C0.5 17 1.5 18 3.5 18H13.5C15.5 18 16.5 17 16.5 15V5C16.5 3.258 15.7481 2.27701 14.2351 2.05701ZM6.53003 12.864L5.19702 14.197C5.05602 14.338 4.86599 14.417 4.66699 14.417C4.46799 14.417 4.27696 14.338 4.13696 14.198L3.46997 13.531C3.17697 13.238 3.17697 12.763 3.46997 12.47C3.76297 12.177 4.23801 12.177 4.53101 12.47L4.66797 12.607L5.47095 11.804C5.76395 11.511 6.23898 11.511 6.53198 11.804C6.82298 12.096 6.82303 12.571 6.53003 12.864ZM6.53003 8.86401L5.19702 10.197C5.05602 10.338 4.86599 10.417 4.66699 10.417C4.46799 10.417 4.27696 10.338 4.13696 10.198L3.46997 9.53101C3.17697 9.23801 3.17697 8.76297 3.46997 8.46997C3.76297 8.17697 4.23801 8.17697 4.53101 8.46997L4.66797 8.60699L5.47095 7.80402C5.76395 7.51102 6.23898 7.51102 6.53198 7.80402C6.82298 8.09602 6.82303 8.57101 6.53003 8.86401ZM13 13.75H9C8.586 13.75 8.25 13.414 8.25 13C8.25 12.586 8.586 12.25 9 12.25H13C13.414 12.25 13.75 12.586 13.75 13C13.75 13.414 13.414 13.75 13 13.75ZM13 9.75H9C8.586 9.75 8.25 9.414 8.25 9C8.25 8.586 8.586 8.25 9 8.25H13C13.414 8.25 13.75 8.586 13.75 9C13.75 9.414 13.414 9.75 13 9.75ZM4.5 2.5V1.5C4.5 0.5 5 0 6 0H11C12 0 12.5 0.5 12.5 1.5V2.5C12.5 3.5 12 4 11 4H6C5 4 4.5 3.5 4.5 2.5Z" fill="#613BE7"/>
</svg>
